<?xml version="1.0" encoding="utf-8"?>
<!-- Generator: Adobe Illustrator 21.0.0, SVG Export Plug-In . SVG Version: 6.00 Build 0)  -->
<!DOCTYPE svg PUBLIC "-//W3C//DTD SVG 1.1//EN" "http://www.w3.org/Graphics/SVG/1.1/DTD/svg11.dtd">
<svg version="1.1" xmlns="http://www.w3.org/2000/svg" xmlns:xlink="http://www.w3.org/1999/xlink" x="0px" y="0px"
	 viewBox="0 0 105 105" style="enable-background:new 0 0 105 105;" xml:space="preserve">
<style type="text/css">
	.st0{fill:#F349FC;stroke:#000000;stroke-width:5;stroke-miterlimit:10;}
</style>
<g id="Layer_1">
	<g id="circle">
		<circle class="st0" cx="52.5" cy="52.5" r="50"/>
	</g>
</g>
<g id="bomb">
	<g transform="translate(-210 -140)">
		<g>
			<path d="M240,193.8c-15.7,15.4-11.7,24.5-9,27.1c2.7,2.6,12,6.4,27.8-8.8c-1.7-3.1-4.4-6.8-8.1-10.4
				C247,198.1,243.3,195.4,240,193.8z"/>
			<path d="M280.9,167l-14.2-13.8l-9.4,9.1l4.4,15.1c-7,4.3-14.1,9.3-19.7,14.4c3.6,1.9,7.3,4.8,10.6,7.9c3.3,3.2,6.2,6.8,8.2,10.3
				c5.3-5.5,10.4-12.4,14.8-19.2l15.5,4.3l9.4-9.1l-14.2-13.9c2.2-4.6,3.4-7.7,3-8.1C288.8,163.8,285.6,164.9,280.9,167z
				 M276.1,180.6c-4.5,4.4-8.9,7.4-10.7,7.5c-0.3,0-0.5,0-0.6-0.2c-0.1-0.1-0.2-0.3-0.2-0.6c0.1-1.7,3.2-6,7.7-10.4
				c5.2-5,10.2-8.3,11.3-7.3C284.6,170.7,281.3,175.6,276.1,180.6z"/>
		</g>
	</g>
</g>
</svg>
