<?xml version="1.0" encoding="utf-8"?>
<!-- Generator: Adobe Illustrator 21.0.0, SVG Export Plug-In . SVG Version: 6.00 Build 0)  -->
<!DOCTYPE svg PUBLIC "-//W3C//DTD SVG 1.1//EN" "http://www.w3.org/Graphics/SVG/1.1/DTD/svg11.dtd">
<svg version="1.1" xmlns="http://www.w3.org/2000/svg" xmlns:xlink="http://www.w3.org/1999/xlink" x="0px" y="0px"
	 viewBox="0 0 105 105" style="enable-background:new 0 0 105 105;" xml:space="preserve">
<style type="text/css">
	.st0{fill:#FF5500;stroke:#000000;stroke-width:5;stroke-miterlimit:10;}
</style>
<g id="Layer_1">
	<g id="circle">
		<circle class="st0" cx="52.5" cy="52.5" r="50"/>
	</g>
</g>
<g id="biohazard">
	<g transform="translate(-450 -260)">
		<g>
			<path d="M522.8,310.9c-1.4,0.1-2.8,0.4-4.1,0.9c0,0.3,0.1,0.7,0.1,1.1c0,6.1-3.4,11.5-8.4,14.2c0.2,0.9,0.5,1.8,0.9,2.7
				c0.3,0.7,0.8,1.4,1.2,2.1c6.8-3.6,11.5-10.8,11.5-19c0-0.6,0-1.3-0.1-1.9c-0.2,0-0.3,0-0.5,0L522.8,310.9z"/>
			<path d="M494.6,327c-5-2.8-8.4-8.1-8.4-14.2c0-0.4,0-0.7,0.1-1.1c-1.3-0.5-2.7-0.8-4.1-0.9l-0.6,0c-0.2,0-0.3,0-0.5,0
				c-0.1,0.6-0.1,1.3-0.1,1.9c0,8.2,4.7,15.4,11.5,19c0.5-0.7,0.9-1.4,1.2-2.1C494.1,328.9,494.4,328,494.6,327z"/>
			<path d="M493.8,299.1c2.5-1.6,5.5-2.6,8.7-2.6s6.2,0.9,8.7,2.6c1.1-0.9,2-2,2.7-3.2c0.2-0.3,0.3-0.6,0.5-0.9
				c-3.4-2.3-7.5-3.6-11.9-3.6c-4.4,0-8.5,1.3-11.9,3.6c0.1,0.3,0.3,0.6,0.5,0.9C491.8,297.1,492.7,298.1,493.8,299.1z"/>
			<path d="M497.4,312.8c0-2.3,1.5-4.2,3.6-4.8v-2.8c-0.1,0-0.2,0-0.4,0c-3.6-0.4-6.8-2-9.2-4.3c-1.1-1-2.1-2.2-2.9-3.6
				c-0.1-0.2-0.2-0.4-0.3-0.6c-1.2-2.3-2-4.9-2-7.7c0-7.1,4.5-13,10.8-15.3v-3c-10.8,2.5-18.9,12.1-18.9,23.7c0,1.4,0.1,2.7,0.4,4
				c-1.5,0.5-3,1.2-4.4,2c-10,5.8-14.3,17.6-11,28.2l2.6-1.5c-1.2-6.6,1.7-13.5,7.8-17c2.5-1.5,5.3-2.1,8-2.1c0.3,0,0.5,0,0.8,0
				c1.5,0.1,3,0.4,4.4,0.8c3.4,1.1,6.4,3.3,8.5,6.5c0,0.1,0.1,0.2,0.2,0.2l2.3-1.3C497.5,313.8,497.4,313.3,497.4,312.8z"/>
			<path d="M530.9,300.4c-1.4-0.8-2.9-1.5-4.4-2c0.2-1.3,0.4-2.6,0.4-4c0-11.6-8.1-21.2-18.9-23.7v3c6.3,2.2,10.8,8.2,10.8,15.3
				c0,2.8-0.7,5.4-2,7.7c-0.1,0.2-0.2,0.4-0.3,0.6c-0.8,1.3-1.8,2.5-2.9,3.6c-2.5,2.3-5.7,3.9-9.3,4.3c-0.1,0-0.2,0-0.4,0v2.8
				c2.1,0.6,3.6,2.5,3.6,4.8c0,0.5-0.1,1-0.2,1.5l2.3,1.3c0-0.1,0.1-0.2,0.1-0.2c2.1-3.2,5.1-5.4,8.5-6.5c1.4-0.5,2.9-0.8,4.4-0.8
				c0.3,0,0.5,0,0.8,0c2.7,0,5.5,0.7,8,2.1c6.1,3.5,9,10.4,7.8,17l2.6,1.5C545.2,318,540.9,306.2,530.9,300.4z"/>
			<path d="M505.7,316.7c-0.9,0.7-2,1.2-3.2,1.2s-2.3-0.5-3.2-1.2l-2.6,1.5c1.3,3.3,1.5,6.8,0.6,10c-0.2,0.9-0.5,1.8-0.9,2.7
				c-0.3,0.7-0.7,1.4-1.1,2.1c-1.3,2.1-3.2,3.9-5.5,5.2c-6.1,3.5-13.5,2.6-18.6-1.7l-2.6,1.5c7.5,8.1,19.9,10.3,29.9,4.5
				c1.5-0.9,2.8-1.8,4.1-2.9c1.2,1.1,2.6,2.1,4.1,2.9c10,5.8,22.4,3.6,29.9-4.5l-2.6-1.5c-5.1,4.3-12.5,5.2-18.6,1.7
				c-2.3-1.3-4.1-3.1-5.5-5.2c-0.4-0.7-0.8-1.4-1.1-2.1c-0.4-0.9-0.7-1.8-0.9-2.7c-0.8-3.2-0.7-6.8,0.6-10L505.7,316.7z"/>
		</g>
	</g>
</g>
</svg>
