<?xml version="1.0" encoding="utf-8"?>
<!-- Generator: Adobe Illustrator 22.0.1, SVG Export Plug-In . SVG Version: 6.00 Build 0)  -->
<svg version="1.1" id="Layer_1" xmlns="http://www.w3.org/2000/svg" xmlns:xlink="http://www.w3.org/1999/xlink" x="0px" y="0px"
	 viewBox="0 0 98.9 98.9" style="enable-background:new 0 0 98.9 98.9;" xml:space="preserve">
<style type="text/css">
	.st0{fill:#67CEF6;stroke:#000000;stroke-width:6;stroke-miterlimit:10;}
</style>
<circle class="st0" cx="49.4" cy="49.4" r="46.4"/>
<path d="M87.1,44.2c-1.2-3.1-2.3-6.2-3.5-9.3c-0.8-2.1-1.2-4.4-2.9-6c-0.8-0.8-1.6-1.6-2.3-2.3c0,0,0,0,0,0c0.7-0.7,1.3-1.4,2-2
	c0.3-0.3,0.3-0.8,0-1.1c-1.1-1.1-2.2-2.2-3.4-3.4c-0.3-0.3-0.8-0.3-1.1,0c-0.7,0.7-1.4,1.3-2,2c0,0,0,0,0,0
	c-2.6-2.6-5.2-5.2-7.7-7.7c-0.5-0.5-1.2-0.5-1.6,0c-2.9,2.9-5.8,5.8-8.7,8.7c-0.4,0.4-0.4,1.2,0,1.6c2.5,2.5,5,5,7.6,7.6
	c-2.5,2.4-5.2,5.1-7.4,7.2c-2.2,2.1-4.5,4.3-6.7,6.4c-1.7-1.6-3.4-3.3-5.1-4.9c-2.8-2.7-6.6-6.4-9.4-9.1c3.3-2.2,7-4.8,10.3-7
	c0.9-0.6,0.9-1.5,0.3-2.3c-2.4-3.1-3.9-5.3-6.3-8.4c-0.4-0.5-1.3-0.6-1.7-0.2c-4.8,3.3-11,6.5-14.8,10.3c-3.9,3.9-7,10-10.3,14.8
	c-0.3,0.5-0.2,1.4,0.2,1.7c3.1,2.4,5.3,3.9,8.4,6.3c0.8,0.6,1.7,0.5,2.3-0.3c2.2-3.3,4.8-7,7-10.3c2.7,2.8,6.4,6.6,9.1,9.4
	c1.6,1.7,3.2,3.3,4.8,5c-2.7,2.6-5.4,5.2-8.1,7.8c-4.6,4.5-9.3,9-13.9,13.4c-0.2,0.2-0.4,0.4-0.7,0.6c-0.6,0.6-0.6,1.6-0.1,2.1
	c0.9,0.9,1.3,1.3,2.2,2.2c0.9,0.9,1.3,1.3,2.2,2.2c0.5,0.5,1.5,0.5,2.1-0.1c0.2-0.2,0.4-0.4,0.6-0.6c4.5-4.6,8.9-9.3,13.4-13.9
	c2.5-2.6,5.1-5.3,7.6-7.9c2.7,2.8,5.4,5.7,8.2,8.5c4.2,4.4,8.5,8.8,12.7,13.3c0.2,0.2,0.4,0.4,0.6,0.6c0.5,0.6,1.5,0.5,2,0
	c0.9-0.9,1.3-1.3,2.2-2.2c0.9-0.9,1.3-1.3,2.2-2.2c0.5-0.5,0.6-1.5,0-2c-0.2-0.2-0.4-0.4-0.6-0.6c-4.4-4.2-8.8-8.5-13.3-12.7
	c-2.9-2.8-5.7-5.5-8.6-8.3c2.1-2.2,4.2-4.4,6.3-6.6c2.1-2.2,4.8-5,7.2-7.4c0.7,0.7,1.5,1.5,2.2,2.2c1.5,1.5,3.5,1.9,5.5,2.6
	c3.3,1.2,6.6,2.5,9.9,3.7c0.5,0.2,0.9,0,1.1-0.3C87.1,45.1,87.3,44.7,87.1,44.2z"/>
</svg>
