<svg xmlns="http://www.w3.org/2000/svg" xmlns:xlink="http://www.w3.org/1999/xlink" version="1.1" x="0px" y="0px" viewBox="0 0 30 37.5" xml:space="preserve"><g transform="translate(-210 -140)"><g xmlns="http://www.w3.org/2000/svg" xmlns:xlink="http://www.w3.org/1999/xlink"><path d="M215.792,157.145c-5.891,5.967-4.408,9.467-3.405,10.469c1.003,1.004,4.502,2.486,10.47-3.404    c-0.632-1.215-1.659-2.633-3.045-4.02C218.425,158.803,217.007,157.776,215.792,157.145z"/><path d="M231.179,146.809l-5.357-5.357l-3.535,3.535l1.67,5.845c-2.63,1.665-5.305,3.595-7.415,5.578    c1.342,0.749,2.752,1.849,3.978,3.073c1.225,1.225,2.324,2.635,3.072,3.977c1.984-2.11,3.913-4.784,5.578-7.414l5.845,1.67    l3.536-3.535l-5.357-5.358c0.839-1.769,1.268-2.974,1.114-3.128C234.153,145.54,232.948,145.97,231.179,146.809z M229.357,152.058    c-1.695,1.695-3.348,2.869-4.01,2.895c-0.101,0.004-0.182-0.016-0.233-0.066c-0.052-0.053-0.07-0.133-0.066-0.234    c0.025-0.662,1.2-2.314,2.895-4.009c1.953-1.953,3.852-3.22,4.243-2.829C232.576,148.205,231.31,150.105,229.357,152.058z"/></g></g><text x="0" y="45" fill="#000000" font-size="5px" font-weight="bold" font-family="'Helvetica Neue', Helvetica, Arial-Unicode, Arial, Sans-serif">Created by Hea Poh Lin</text><text x="0" y="50" fill="#000000" font-size="5px" font-weight="bold" font-family="'Helvetica Neue', Helvetica, Arial-Unicode, Arial, Sans-serif">from the Noun Project</text></svg>