<svg xmlns="http://www.w3.org/2000/svg" xmlns:xlink="http://www.w3.org/1999/xlink" version="1.1" x="0px" y="0px" viewBox="0 0 100 125" style="enable-background:new 0 0 100 100;" xml:space="preserve"><path d="M81.755,19.791c-3.654-4.99-9.673-7.883-15.948-7.473C61.887,7.698,56.135,5,50,5s-11.887,2.698-15.807,7.318  c-6.279-0.416-12.295,2.482-15.948,7.473C10.674,21.043,5,27.568,5,35.441s5.674,14.397,13.245,15.65  c3.655,4.991,9.681,7.887,15.951,7.472c0.729,0.857,1.533,1.645,2.39,2.372C27.956,62.189,20,64.873,20,70  c0,4.633,6.497,7.271,14.117,8.661l-2.425,9.702v0.461c0,4.182,5.184,5.045,7.397,5.415C42.036,94.729,45.911,95,50,95  s7.964-0.271,10.911-0.762c2.214-0.369,7.397-1.233,7.397-5.415v-0.461l-2.425-9.702C73.503,77.271,80,74.633,80,70  c0-5.127-7.956-7.811-16.586-9.064c0.856-0.727,1.661-1.515,2.39-2.372c6.274,0.414,12.297-2.481,15.951-7.472  C89.326,49.839,95,43.314,95,35.441S89.326,21.043,81.755,19.791z M35.333,73.797c-6.067-1.096-9.671-2.701-10.279-3.797  c0.671-1.21,4.999-3.043,12.259-4.122L35.333,73.797z M50,87.5c-4.752,0-8.172-0.376-10.176-0.747l1.779-7.117  C44.591,79.892,47.491,80,50,80s5.409-0.108,8.396-0.364l1.779,7.117C58.172,87.124,54.752,87.5,50,87.5z M42.83,74.729  l2.964-11.856c1.378,0.326,2.799,0.513,4.251,0.513c1.422,0,2.814-0.179,4.165-0.492l2.959,11.835C54.954,74.898,52.57,75,50,75  S45.046,74.898,42.83,74.729z M74.946,70c-0.608,1.096-4.212,2.701-10.279,3.797l-1.98-7.919C69.947,66.957,74.275,68.79,74.946,70z   M79.448,43.802l-2.068,0.081l-1.034,1.793c-2.282,3.959-6.913,6.124-11.484,5.215l-2.458-0.488l-1.392,2.083  c-1.3,1.945-3.101,3.52-5.208,4.552l-0.817,0.4c-3.513,1.401-7.503,1.24-10.91-0.469c-0.479-0.241-0.946-0.504-1.391-0.799  c-0.021-0.014-0.041-0.031-0.062-0.046c-0.413-0.278-0.806-0.584-1.184-0.906c-0.127-0.108-0.249-0.223-0.372-0.336  c-0.781-0.716-1.488-1.512-2.079-2.397l-1.392-2.083l-2.458,0.488c-4.573,0.909-9.202-1.256-11.484-5.215l-1.034-1.793l-2.068-0.081  c-4.516-0.176-8.052-3.849-8.052-8.361c0-4.513,3.536-8.185,8.052-8.361L22.62,27l1.034-1.793c2.282-3.959,6.912-6.124,11.484-5.215  l2.458,0.488l1.392-2.083C41.455,14.704,45.571,12.5,50,12.5s8.545,2.204,11.012,5.896l1.392,2.083l2.458-0.488  c4.571-0.91,9.201,1.255,11.484,5.215L77.38,27l2.068,0.081c4.516,0.176,8.052,3.849,8.052,8.361  C87.5,39.954,83.964,43.626,79.448,43.802z"/><text x="0" y="115" fill="#000000" font-size="5px" font-weight="bold" font-family="'Helvetica Neue', Helvetica, Arial-Unicode, Arial, Sans-serif">Created by Arthur Shlain</text><text x="0" y="120" fill="#000000" font-size="5px" font-weight="bold" font-family="'Helvetica Neue', Helvetica, Arial-Unicode, Arial, Sans-serif">from the Noun Project</text></svg>