<svg xmlns="http://www.w3.org/2000/svg" xmlns:xlink="http://www.w3.org/1999/xlink" version="1.1" x="0px" y="0px" viewBox="0 0 100 125" enable-background="new 0 0 100 100" xml:space="preserve"><g><g><circle cx="55" cy="71.3" r="2.8"/><path d="M55,65.9c1,0,1.9,0.3,2.7,0.7l3.1-5.4c-1.7-1-3.7-1.6-5.8-1.6s-4.1,0.6-5.8,1.6l3.1,5.4    C53.1,66.2,54,65.9,55,65.9z"/><path d="M59.6,74c-0.5,0.8-1.1,1.5-2,2l3.1,5.4c1.8-1,3.2-2.5,4.2-4.2c1-1.7,1.6-3.7,1.6-5.8h-6.3    C60.3,72.3,60.1,73.2,59.6,74z"/><path d="M50.4,74c-0.5-0.8-0.7-1.7-0.7-2.7h-6.3c0,2.1,0.6,4.1,1.6,5.8c1,1.8,2.5,3.2,4.2,4.2l3.1-5.4    C51.5,75.5,50.8,74.8,50.4,74z"/><path d="M50,8.5C27.1,8.5,8.5,27.1,8.5,50S27.1,91.5,50,91.5S91.5,72.9,91.5,50S72.9,8.5,50,8.5z M65.8,25.6    c-1.4,0-2.5-1.1-2.5-2.5c0-1.4,1.1-2.5,2.5-2.5c1.4,0,2.5,1.1,2.5,2.5C68.3,24.5,67.2,25.6,65.8,25.6z M68.3,41.9    c0,1.4-1.1,2.5-2.5,2.5c-1.4,0-2.5-1.1-2.5-2.5c0-1.4,1.1-2.5,2.5-2.5C67.2,39.4,68.3,40.5,68.3,41.9z M62.9,32.5    c0,1.4-1.1,2.5-2.5,2.5c-1.4,0-2.5-1.1-2.5-2.5c0-1.4,1.1-2.5,2.5-2.5C61.8,30,62.9,31.1,62.9,32.5z M55,25.6    c-1.4,0-2.5-1.1-2.5-2.5c0-1.4,1.1-2.5,2.5-2.5c1.4,0,2.5,1.1,2.5,2.5C57.5,24.5,56.4,25.6,55,25.6z M57.5,41.9    c0,1.4-1.1,2.5-2.5,2.5c-1.4,0-2.5-1.1-2.5-2.5c0-1.4,1.1-2.5,2.5-2.5C56.4,39.4,57.5,40.5,57.5,41.9z M46.6,41.9    c0,1.4-1.1,2.5-2.5,2.5c-1.4,0-2.5-1.1-2.5-2.5c0-1.4,1.1-2.5,2.5-2.5C45.5,39.4,46.6,40.5,46.6,41.9z M22.5,39.4    c1.4,0,2.5,1.1,2.5,2.5c0,1.4-1.1,2.5-2.5,2.5c-1.4,0-2.5-1.1-2.5-2.5C20,40.5,21.1,39.4,22.5,39.4z M27.9,48.8    c1.4,0,2.5,1.1,2.5,2.5c0,1.4-1.1,2.5-2.5,2.5c-1.4,0-2.5-1.1-2.5-2.5C25.4,50,26.5,48.8,27.9,48.8z M25.4,32.5    c0-1.4,1.1-2.5,2.5-2.5c1.4,0,2.5,1.1,2.5,2.5c0,1.4-1.1,2.5-2.5,2.5C26.5,35,25.4,33.9,25.4,32.5z M33.3,39.4    c1.4,0,2.5,1.1,2.5,2.5c0,1.4-1.1,2.5-2.5,2.5c-1.4,0-2.5-1.1-2.5-2.5C30.8,40.5,31.9,39.4,33.3,39.4z M30.8,23.1    c0-1.4,1.1-2.5,2.5-2.5c1.4,0,2.5,1.1,2.5,2.5c0,1.4-1.1,2.5-2.5,2.5C31.9,25.6,30.8,24.5,30.8,23.1z M41.2,32.5    c0,1.4-1.1,2.5-2.5,2.5c-1.4,0-2.5-1.1-2.5-2.5c0-1.4,1.1-2.5,2.5-2.5C40.1,30,41.2,31.1,41.2,32.5z M49.6,30    c1.4,0,2.5,1.1,2.5,2.5c0,1.4-1.1,2.5-2.5,2.5c-1.4,0-2.5-1.1-2.5-2.5C47.1,31.1,48.2,30,49.6,30z M71.3,30c1.4,0,2.5,1.1,2.5,2.5    c0,1.4-1.1,2.5-2.5,2.5c-1.4,0-2.5-1.1-2.5-2.5C68.8,31.1,69.9,30,71.3,30z M36.4,83.9c0.8-4.6,2.2-9,3.8-13.4    c2.6-6.9,4.2-13.7,4.2-21.1h21.1c0,7.5,1.7,14.2,4.2,21.1c1,2.7,1.9,5.5,2.7,8.2c-6.2,4.9-14,7.8-22.5,7.8    C45.2,86.5,40.6,85.6,36.4,83.9z"/></g></g><text x="0" y="115" fill="#000000" font-size="5px" font-weight="bold" font-family="'Helvetica Neue', Helvetica, Arial-Unicode, Arial, Sans-serif">Created by Yu luck</text><text x="0" y="120" fill="#000000" font-size="5px" font-weight="bold" font-family="'Helvetica Neue', Helvetica, Arial-Unicode, Arial, Sans-serif">from the Noun Project</text></svg>