<svg xmlns="http://www.w3.org/2000/svg" xmlns:xlink="http://www.w3.org/1999/xlink" version="1.1" x="0px" y="0px" viewBox="0 0 29 37.5" xml:space="preserve"><g transform="translate(-450 -260)"><g xmlns="http://www.w3.org/2000/svg" xmlns:xlink="http://www.w3.org/1999/xlink"><path d="M471.523,275.94c-0.488,0.021-0.961,0.127-1.406,0.295c0.008,0.121,0.018,0.242,0.018,0.365    c0,2.115-1.172,3.959-2.898,4.923c0.068,0.315,0.168,0.625,0.305,0.923c0.117,0.259,0.264,0.498,0.424,0.728    c2.358-1.248,3.971-3.725,3.971-6.573c0-0.221-0.016-0.438-0.033-0.653c-0.059-0.002-0.117-0.011-0.176-0.011L471.523,275.94z"/><path d="M461.766,281.522c-1.729-0.964-2.9-2.808-2.9-4.923c0-0.123,0.012-0.244,0.02-0.365c-0.447-0.168-0.92-0.273-1.408-0.295    l-0.203-0.004c-0.059,0-0.115,0.009-0.174,0.011c-0.02,0.216-0.033,0.433-0.033,0.653c0,2.849,1.611,5.325,3.969,6.573    c0.16-0.23,0.307-0.469,0.426-0.728C461.596,282.147,461.695,281.838,461.766,281.522z"/><path d="M461.48,271.851c0.875-0.558,1.908-0.886,3.02-0.886s2.146,0.328,3.02,0.886c0.365-0.319,0.688-0.693,0.94-1.119    c0.06-0.103,0.107-0.21,0.16-0.316c-1.18-0.788-2.596-1.249-4.119-1.249c-1.522,0-2.938,0.461-4.117,1.249    c0.051,0.107,0.1,0.214,0.158,0.316C460.795,271.157,461.115,271.531,461.48,271.851z"/><path d="M462.75,276.601c0-0.791,0.529-1.452,1.25-1.669v-0.964c-0.041-0.004-0.082-0.003-0.123-0.007    c-1.234-0.138-2.34-0.684-3.197-1.49c-0.387-0.362-0.727-0.772-0.998-1.23c-0.037-0.064-0.066-0.134-0.102-0.199    c-0.426-0.789-0.682-1.685-0.682-2.645c0-2.438,1.561-4.505,3.734-5.275v-1.044c-3.74,0.85-6.535,4.189-6.535,8.186    c0,0.469,0.049,0.925,0.123,1.371c-0.522,0.176-1.031,0.403-1.525,0.689c-3.461,1.999-4.955,6.089-3.82,9.753l0.902-0.522    c-0.42-2.268,0.592-4.653,2.701-5.871c0.879-0.507,1.834-0.732,2.779-0.734c0.088,0,0.176-0.011,0.264-0.007    c0.52,0.022,1.029,0.126,1.52,0.289c1.172,0.39,2.221,1.156,2.936,2.263c0.017,0.027,0.035,0.054,0.053,0.08l0.805-0.465    C462.785,276.946,462.75,276.778,462.75,276.601z"/><path d="M474.305,272.322c-0.494-0.285-1.004-0.513-1.525-0.689c0.076-0.446,0.123-0.902,0.123-1.371    c0-3.997-2.795-7.337-6.535-8.186v1.044c2.174,0.771,3.734,2.838,3.734,5.275c0,0.96-0.254,1.857-0.682,2.645    c-0.035,0.065-0.063,0.135-0.102,0.199c-0.27,0.459-0.611,0.868-0.996,1.23c-0.859,0.807-1.963,1.353-3.199,1.49    c-0.039,0.004-0.082,0.003-0.123,0.007v0.964c0.721,0.217,1.25,0.878,1.25,1.669c0,0.177-0.033,0.345-0.084,0.507l0.807,0.465    c0.017-0.026,0.033-0.053,0.051-0.08c0.717-1.106,1.766-1.873,2.936-2.263c0.492-0.163,1.002-0.267,1.519-0.289    c0.088-0.004,0.178,0.007,0.266,0.007c0.943,0.002,1.9,0.228,2.777,0.734c2.109,1.218,3.121,3.604,2.701,5.871l0.902,0.522    C479.26,278.411,477.766,274.321,474.305,272.322z"/><path d="M465.611,277.941c-0.303,0.252-0.688,0.409-1.111,0.409s-0.809-0.157-1.111-0.409l-0.91,0.525    c0.449,1.131,0.506,2.342,0.215,3.465c-0.082,0.318-0.188,0.629-0.324,0.929c-0.113,0.249-0.246,0.49-0.396,0.723    c-0.465,0.719-1.1,1.343-1.893,1.801c-2.109,1.218-4.682,0.9-6.436-0.597l-0.902,0.521c2.605,2.814,6.893,3.564,10.355,1.566    c0.512-0.295,0.979-0.637,1.402-1.016c0.424,0.379,0.891,0.721,1.402,1.016c3.463,1.998,7.75,1.248,10.355-1.566l-0.902-0.521    c-1.754,1.497-4.324,1.814-6.436,0.597c-0.793-0.458-1.428-1.082-1.893-1.801c-0.148-0.232-0.283-0.474-0.396-0.723    c-0.137-0.3-0.24-0.61-0.322-0.929c-0.291-1.123-0.236-2.334,0.215-3.465L465.611,277.941z"/></g></g><text x="0" y="45" fill="#000000" font-size="5px" font-weight="bold" font-family="'Helvetica Neue', Helvetica, Arial-Unicode, Arial, Sans-serif">Created by Hea Poh Lin</text><text x="0" y="50" fill="#000000" font-size="5px" font-weight="bold" font-family="'Helvetica Neue', Helvetica, Arial-Unicode, Arial, Sans-serif">from the Noun Project</text></svg>