<?xml version="1.0" encoding="utf-8"?>
<!-- Generator: Adobe Illustrator 22.0.1, SVG Export Plug-In . SVG Version: 6.00 Build 0)  -->
<svg version="1.1" xmlns="http://www.w3.org/2000/svg" xmlns:xlink="http://www.w3.org/1999/xlink" x="0px" y="0px"
	 viewBox="0 0 87 87" style="enable-background:new 0 0 87 87;" xml:space="preserve">
<style type="text/css">
	.st0{fill:#3FFF00;stroke:#231F20;stroke-width:5;stroke-miterlimit:10;}
	.st1{fill:#231F20;}
</style>
<g id="circle">
	<circle class="st0" cx="43.5" cy="43.5" r="41.5"/>
</g>
<g id="Layer_1">
	<g>
		<circle class="st1" cx="64.6" cy="21.9" r="2.5"/>
		<circle class="st1" cx="32" cy="21.9" r="2.5"/>
		<circle class="st1" cx="26.6" cy="12.5" r="2.5"/>
		<circle class="st1" cx="21.2" cy="21.9" r="2.5"/>
		<circle class="st1" cx="48.1" cy="12.5" r="2.5"/>
		<circle class="st1" cx="53.7" cy="21.9" r="2.5"/>
		<circle class="st1" cx="42.9" cy="21.9" r="2.5"/>
		<circle class="st1" cx="37.3" cy="12.5" r="2.5"/>
	</g>
	<circle class="st1" cx="59.1" cy="29.4" r="2.5"/>
	<circle class="st1" cx="48.3" cy="29.4" r="2.5"/>
</g>
<g id="reactor">
	<path class="st1" d="M75,72.3c-1-3.4-1.4-8.3-2.7-11.7C69.1,51.9,67,43.4,67,33.9H40.3c0,9.3-2,17.9-5.3,26.7
		c-2,5.6-4.5,14.5-5.5,20.3c5.3,2.1,11.1,3.3,17.1,3.3C57.3,84.2,67.1,78.5,75,72.3z M53.7,65.1c-2,0-3.5-1.6-3.5-3.5
		c0-2,1.6-3.5,3.5-3.5c2,0,3.5,1.6,3.5,3.5C57.3,63.6,55.7,65.1,53.7,65.1z M68.3,61.7c0,2.7-0.8,5.2-2,7.3c-1.3,2.1-3,4-5.3,5.3
		L57,67.5c1.1-0.6,1.9-1.5,2.5-2.5s0.9-2.1,0.8-3.3H68.3z M53.7,46.8c2.7,0,5.2,0.8,7.3,2l-3.9,6.8c-1-0.5-2.1-0.9-3.4-0.9
		c-1.3,0-2.4,0.4-3.4,0.9l-3.9-6.8C48.5,47.6,51.1,46.8,53.7,46.8z M41.1,68.9c-1.3-2.1-2-4.7-2-7.3h8c0,1.3,0.3,2.4,0.9,3.4
		c0.5,1,1.4,1.9,2.4,2.4l-3.9,6.8C44.2,73,42.4,71.2,41.1,68.9z"/>
</g>
</svg>
