<?xml version="1.0" encoding="utf-8"?>
<!-- Generator: Adobe Illustrator 21.0.0, SVG Export Plug-In . SVG Version: 6.00 Build 0)  -->
<!DOCTYPE svg PUBLIC "-//W3C//DTD SVG 1.1//EN" "http://www.w3.org/Graphics/SVG/1.1/DTD/svg11.dtd">
<svg version="1.1" id="Layer_1" xmlns="http://www.w3.org/2000/svg" xmlns:xlink="http://www.w3.org/1999/xlink" x="0px" y="0px"
	 viewBox="0 0 100 100" style="enable-background:new 0 0 100 100;" xml:space="preserve">
<style type="text/css">
	.st0{fill:#FFF800;}
</style>
<circle class="st0" cx="50.4" cy="49.3" r="39.8"/>
<g>
	<path d="M50,7.4C26.5,7.4,7.4,26.5,7.4,50S26.5,92.6,50,92.6S92.6,73.5,92.6,50S73.5,7.4,50,7.4z M49.9,43.5c3.6,0,6.5,2.9,6.5,6.5
		s-2.9,6.5-6.5,6.5c-3.6,0-6.5-2.9-6.5-6.5S46.3,43.5,49.9,43.5z M13,50C13,50,13,50,13,50c0-14.1,7.1-26.3,18.5-32.8l12.2,21.6
		c-3.9,2.2-6.8,6.3-6.8,11.3L13,50L13,50z M49.9,87.8c-6.9,0-13.3-1.8-18.9-5l12.4-21.5c1.9,1.1,4.1,1.7,6.5,1.7
		c2.4,0,4.6-0.6,6.5-1.8l12.4,21.5C63.3,86,56.8,87.8,49.9,87.8z M62.9,50c0-4.9-2.6-9-6.5-11.2l12.1-21.6
		C79.8,23.7,87,35.9,87,49.9c0,0,0,0.1,0,0.1H62.9z"/>
	<polygon points="49.9,50 49.9,50.1 50,50.1 	"/>
</g>
</svg>
