<?xml version="1.0" encoding="utf-8"?>
<!-- Generator: Adobe Illustrator 22.0.1, SVG Export Plug-In . SVG Version: 6.00 Build 0)  -->
<svg version="1.1" id="Layer_1" xmlns="http://www.w3.org/2000/svg" xmlns:xlink="http://www.w3.org/1999/xlink" x="0px" y="0px"
	 viewBox="0 0 85.2 85.2" style="enable-background:new 0 0 85.2 85.2;" xml:space="preserve">
<style type="text/css">
	.st0{fill:#FFF800;}
</style>
<circle class="st0" cx="43" cy="41.9" r="39.8"/>
<g>
	<path d="M42.6,0C19.1,0,0,19.1,0,42.6s19.1,42.6,42.6,42.6s42.6-19.1,42.6-42.6S66.1,0,42.6,0z M42.5,36.1c3.6,0,6.5,2.9,6.5,6.5
		s-2.9,6.5-6.5,6.5S36,46.2,36,42.6S38.9,36.1,42.5,36.1z M5.6,42.6L5.6,42.6c0-14.1,7.1-26.3,18.5-32.8l12.2,21.6
		c-3.9,2.2-6.8,6.3-6.8,11.3L5.6,42.6L5.6,42.6z M42.5,80.4c-6.9,0-13.3-1.8-18.9-5L36,53.9c1.9,1.1,4.1,1.7,6.5,1.7
		s4.6-0.6,6.5-1.8l12.4,21.5C55.9,78.6,49.4,80.4,42.5,80.4z M55.5,42.6c0-4.9-2.6-9-6.5-11.2L61.1,9.8
		c11.3,6.5,18.5,18.7,18.5,32.7v0.1H55.5z"/>
	<polygon points="42.5,42.6 42.5,42.7 42.6,42.7 	"/>
</g>
</svg>
